<svg role="img" viewBox="0 0 24 24" xmlns="http://www.w3.org/2000/svg"><title>HubSpot</title><path d="M18.5 9.5c-1 0-1.8.4-2.4 1L14 8.8V4.5c0-.3-.2-.5-.5-.5s-.5.2-.5.5v4.3L11 6.6C10.4 6 9.6 5.6 8.6 5.6c-1.9 0-3.4 1.5-3.4 3.4s1.5 3.4 3.4 3.4c1 0 1.8-.4 2.4-1l2 2.2v4.9c0 .3.2.5.5.5s.5-.2.5-.5v-4.9l2 2.2c.6.6 1.4 1 2.4 1 1.9 0 3.4-1.5 3.4-3.4s-1.5-3.4-3.4-3.4zm-10 2.4c-1.3 0-2.4-1.1-2.4-2.4s1.1-2.4 2.4-2.4 2.4 1.1 2.4 2.4-1.1 2.4-2.4 2.4zm10 3c-1.3 0-2.4-1.1-2.4-2.4s1.1-2.4 2.4-2.4 2.4 1.1 2.4 2.4-1.1 2.4-2.4 2.4z" fill="currentColor"/></svg>